<svg version="1.2" xmlns="http://www.w3.org/2000/svg" viewBox="0 0 23 21" width="23" height="21"><defs><clipPath clipPathUnits="userSpaceOnUse" id="cp1"><path d="m-1386-5136h1920v6874h-1920z"/></clipPath></defs><style>.a{fill:#9abbff}.b{fill:#6899fe}.c{fill:#c5d8ff}.d{fill:#3a7bff}</style><g clip-path="url(#cp1)"><g style="opacity:.2"><path class="a" d="m17.7 20.2l-2.1-4.9 7.3-5.2z"/><path class="a" d="m22.9 10.1l-7.7-5.7 1.6-3.8z"/><path class="b" d="m15.6 15.3l-0.4-10.9 7.7 5.7z"/><path class="c" d="m15.2 4.4l-9.7-3.3 11.3-0.5z"/><path class="c" d="m17.7 20.2l-11.3 0.5 9.2-5.4z"/><path class="c" d="m3.9 10.5l-3.6 0.6 5.2-10z"/><path class="a" d="m6.4 20.7l-6.1-9.6 3.6-0.6z"/><path class="d" d="m15.6 15.3l-11.7-4.8 11.3-6.1z"/><path class="b" d="m15.6 15.3l-9.2 5.4-2.5-10.2z"/><path class="b" d="m3.9 10.5l1.6-9.4 9.7 3.3z"/></g></g></svg>