<svg version="1.2" xmlns="http://www.w3.org/2000/svg" viewBox="0 0 69 61" width="69" height="61"><defs><clipPath clipPathUnits="userSpaceOnUse" id="cp1"><path d="m-246-5642h1920v6874h-1920z"/></clipPath></defs><style>.a{fill:#9abbff}.b{fill:#6899fe}.c{fill:#c5d8ff}.d{fill:#3a7bff}</style><g clip-path="url(#cp1)"><g style="opacity:.2"><path class="a" d="m52.7 59.1l-6.1-14.7 21.7-15.2z"/><path class="a" d="m68.3 29.2l-23.1-17 5-11.5z"/><path class="b" d="m46.6 44.4l-1.4-32.2 23.1 17z"/><path class="c" d="m45.2 12.2l-28.7-10.1 33.7-1.4z"/><path class="c" d="m52.7 59.1l-33.7 1.5 27.6-16.2z"/><path class="c" d="m11.6 30.1l-10.7 2 15.6-30z"/><path class="a" d="m19 60.6l-18.1-28.5 10.7-2z"/><path class="d" d="m46.6 44.4l-35-14.3 33.6-17.9z"/><path class="b" d="m46.6 44.4l-27.6 16.2-7.4-30.5z"/><path class="b" d="m11.6 30.1l4.9-28 28.7 10.1z"/></g></g></svg>