<svg version="1.2" xmlns="http://www.w3.org/2000/svg" viewBox="0 0 143 159" width="143" height="159"><defs><clipPath clipPathUnits="userSpaceOnUse" id="cp1"><path d="m-1450-5832h1920v6874h-1920z"/></clipPath></defs><style>.a{fill:#9abbff}.b{fill:#6899fe}.c{fill:#c5d8ff}.d{fill:#3a7bff}</style><g clip-path="url(#cp1)"><g style="opacity:.2"><path class="a" d="m137.8 123.5l-27.2-25.7 32.1-53.6z"/><path class="a" d="m142.7 44.2l-66-14.4-0.2-29.5z"/><path class="b" d="m110.6 97.8l-33.9-68 66 14.4z"/><path class="c" d="m76.7 29.8l-71.3 5.9 71.1-35.4z"/><path class="c" d="m137.8 123.5l-71.1 35.4 43.9-61.1z"/><path class="c" d="m21.6 100.6l-21.1 14.4 4.9-79.3z"/><path class="a" d="m66.7 158.9l-66.2-43.9 21.1-14.4z"/><path class="d" d="m110.6 97.8l-89 2.8 55.1-70.8z"/><path class="b" d="m110.6 97.8l-43.9 61.1-45.1-58.3z"/><path class="b" d="m21.6 100.6l-16.2-64.9 71.3-5.9z"/></g></g></svg>