<svg version="1.2" xmlns="http://www.w3.org/2000/svg" viewBox="0 0 59 67" width="59" height="67"><defs><clipPath clipPathUnits="userSpaceOnUse" id="cp1"><path d="m-1738-105h1920v6874h-1920z"/></clipPath></defs><style>.a{fill:#9abbff}.b{fill:#6899fe}.c{fill:#c5d8ff}.d{fill:#3a7bff}</style><g clip-path="url(#cp1)"><g style="opacity:.2"><path class="a" d="m57.5 51.5l-11.5-10.6 13-22.5z"/><path class="a" d="m59 18.4l-27.6-5.6-0.3-12.3z"/><path class="b" d="m46 40.9l-14.6-28.1 27.6 5.6z"/><path class="c" d="m31.4 12.8l-29.7 3 29.4-15.3z"/><path class="c" d="m57.5 51.5l-29.4 15.2 17.9-25.8z"/><path class="c" d="m8.9 42.8l-8.7 6.1 1.5-33.1z"/><path class="a" d="m28.1 66.7l-27.9-17.8 8.7-6.1z"/><path class="d" d="m46 40.9l-37.1 1.9 22.5-30z"/><path class="b" d="m46 40.9l-17.9 25.8-19.2-23.9z"/><path class="b" d="m8.9 42.8l-7.2-27 29.7-3z"/></g></g></svg>