<svg version="1.2" xmlns="http://www.w3.org/2000/svg" viewBox="0 0 124 115" width="124" height="115"><defs><clipPath clipPathUnits="userSpaceOnUse" id="cp1"><path d="m-684-678h1920v6874h-1920z"/></clipPath></defs><style>.a{fill:#9abbff}.b{fill:#6899fe}.c{fill:#c5d8ff}.d{fill:#3a7bff}</style><g clip-path="url(#cp1)"><g style="opacity:.2"><path class="a" d="m123 50.7l-29.1-1.7-7.6-48z"/><path class="a" d="m86.3 1l-46.6 24.4-14.8-17.5z"/><path class="b" d="m93.9 49l-54.2-23.6 46.6-24.4z"/><path class="c" d="m39.7 25.4l-39.5 39.2 24.7-56.7z"/><path class="c" d="m123 50.7l-24.7 56.6-4.4-58.3z"/><path class="c" d="m42.3 95.1l-5.4 19.2-36.7-49.7z"/><path class="a" d="m98.3 107.3l-61.4 7 5.4-19.2z"/><path class="d" d="m93.9 49l-51.6 46.1-2.6-69.7z"/><path class="b" d="m93.9 49l4.4 58.3-56-12.2z"/><path class="b" d="m42.3 95.1l-42.1-30.5 39.5-39.2z"/></g></g></svg>