<svg version="1.2" xmlns="http://www.w3.org/2000/svg" viewBox="0 0 193 187" width="193" height="187"><defs><clipPath clipPathUnits="userSpaceOnUse" id="cp1"><path d="m-1511-1148h1920v6874h-1920z"/></clipPath></defs><style>.a{fill:#9abbff}.b{fill:#6899fe}.c{fill:#c5d8ff}.d{fill:#3a7bff}</style><g clip-path="url(#cp1)"><g style="opacity:.2"><path class="a" d="m161.7 20.2l-36.2 28.9-59.9-48.5z"/><path class="a" d="m65.6 0.6l-29 78.2-36.1-4.8z"/><path class="b" d="m125.5 49.1l-88.9 29.7 29-78.2z"/><path class="c" d="m36.6 78.8l-5.1 88.2-31-93z"/><path class="c" d="m161.7 20.2l31 93.1-67.2-64.2z"/><path class="c" d="m113.7 158.3l13.9 28.4-96.1-19.7z"/><path class="a" d="m192.7 113.3l-65.1 73.4-13.9-28.4z"/><path class="d" d="m125.5 49.1l-11.8 109.2-77.1-79.5z"/><path class="b" d="m125.5 49.1l67.2 64.2-79 45z"/><path class="b" d="m113.7 158.3l-82.2 8.7 5.1-88.2z"/></g></g></svg>