<svg version="1.2" xmlns="http://www.w3.org/2000/svg" viewBox="0 0 33 36" width="33" height="36"><defs><clipPath clipPathUnits="userSpaceOnUse" id="cp1"><path d="m-230-179h1920v6874h-1920z"/></clipPath></defs><style>.a{fill:#9abbff}.b{fill:#6899fe}.c{fill:#c5d8ff}.d{fill:#3a7bff}</style><g clip-path="url(#cp1)"><g style="opacity:.2"><path class="a" d="m32.4 25.2l-6.7-4.8 5.4-12.7z"/><path class="a" d="m31.1 7.7l-14.9-1.1-1-6.5z"/><path class="b" d="m25.7 20.4l-9.5-13.8 14.9 1.1z"/><path class="c" d="m16.2 6.6l-15.4 3.5 14.4-10z"/><path class="c" d="m32.4 25.2l-14.4 9.9 7.7-14.7z"/><path class="c" d="m6.3 23.8l-4.2 3.8-1.3-17.5z"/><path class="a" d="m18 35.1l-15.9-7.5 4.2-3.8z"/><path class="d" d="m25.7 20.4l-19.4 3.4 9.9-17.2z"/><path class="b" d="m25.7 20.4l-7.7 14.7-11.7-11.3z"/><path class="b" d="m6.3 23.8l-5.5-13.7 15.4-3.5z"/></g></g></svg>