<svg version="1.2" xmlns="http://www.w3.org/2000/svg" viewBox="0 0 153 155" width="153" height="155"><defs><clipPath clipPathUnits="userSpaceOnUse" id="cp1"><path d="m-99-2622h1920v6874h-1920z"/></clipPath></defs><style>.a{fill:#9abbff}.b{fill:#6899fe}.c{fill:#c5d8ff}.d{fill:#3a7bff}</style><g clip-path="url(#cp1)"><g style="opacity:.2"><path class="a" d="m152.8 100.3l-33.6-16.7 15.1-60.6z"/><path class="a" d="m134.3 23l-67.4 5.5-8.8-28.2z"/><path class="b" d="m119.2 83.6l-52.3-55.1 67.4-5.5z"/><path class="c" d="m66.9 28.5l-66.5 26.5 57.7-54.7z"/><path class="c" d="m152.8 100.3l-57.7 54.6 24.1-71.3z"/><path class="c" d="m35 112.3l-16.1 20-18.5-77.3z"/><path class="a" d="m95.1 154.9l-76.2-22.6 16.1-20z"/><path class="d" d="m119.2 83.6l-84.2 28.7 31.9-83.8z"/><path class="b" d="m119.2 83.6l-24.1 71.3-60.1-42.6z"/><path class="b" d="m35 112.3l-34.6-57.3 66.5-26.5z"/></g></g></svg>