<svg version="1.2" xmlns="http://www.w3.org/2000/svg" viewBox="0 0 62 69" width="62" height="69"><defs><clipPath clipPathUnits="userSpaceOnUse" id="cp1"><path d="m-1700-2869h1920v6874h-1920z"/></clipPath></defs><style>.a{fill:#9abbff}.b{fill:#6899fe}.c{fill:#c5d8ff}.d{fill:#3a7bff}</style><g clip-path="url(#cp1)"><g style="opacity:.2"><path class="a" d="m61.1 49.2l-13-9.2 10.4-24.5z"/><path class="a" d="m58.5 15.5l-28.7-2.2-1.8-12.3z"/><path class="b" d="m48.1 40l-18.3-26.7 28.7 2.2z"/><path class="c" d="m29.8 13.3l-29.7 6.8 27.9-19.1z"/><path class="c" d="m61.1 49.2l-27.9 19.1 14.9-28.3z"/><path class="c" d="m10.8 46.4l-8.1 7.3-2.6-33.6z"/><path class="a" d="m33.2 68.3l-30.4-14.6 8-7.3z"/><path class="d" d="m48.1 40l-37.3 6.4 19-33.1z"/><path class="b" d="m48.1 40l-14.9 28.3-22.4-21.9z"/><path class="b" d="m10.8 46.4l-10.7-26.3 29.7-6.8z"/></g></g></svg>