<svg version="1.2" xmlns="http://www.w3.org/2000/svg" viewBox="0 0 93 85" width="93" height="85"><defs><clipPath clipPathUnits="userSpaceOnUse" id="cp1"><path d="m-1607-3522h1920v6874h-1920z"/></clipPath></defs><style>.a{fill:#9abbff}.b{fill:#6899fe}.c{fill:#c5d8ff}.d{fill:#3a7bff}</style><g clip-path="url(#cp1)"><g style="opacity:.2"><path class="a" d="m92.9 38.2l-21.9-1.6-5.1-36.3z"/><path class="a" d="m65.9 0.3l-35.3 17.8-11-13.4z"/><path class="b" d="m71 36.6l-40.4-18.5 35.3-17.8z"/><path class="c" d="m30.6 18.1l-30.3 28.9 19.3-42.3z"/><path class="c" d="m92.9 38.2l-19.3 42.3-2.6-43.9z"/><path class="c" d="m31.6 70.6l-4.3 14.4-27-38z"/><path class="a" d="m73.6 80.5l-46.3 4.5 4.3-14.4z"/><path class="d" d="m71 36.6l-39.4 34-1-52.5z"/><path class="b" d="m71 36.6l2.6 43.9-42-9.9z"/><path class="b" d="m31.6 70.6l-31.3-23.6 30.3-28.9z"/></g></g></svg>