<svg version="1.2" xmlns="http://www.w3.org/2000/svg" viewBox="0 0 60 14" width="60" height="14"><defs><clipPath clipPathUnits="userSpaceOnUse" id="cp1"><path d="m-438-57h1920v6874h-1920z"/></clipPath></defs><style>.a{fill:#413b83}</style><g clip-path="url(#cp1)"><path class="a" d="m2.4 13.2q-1.1-0.6-1.8-1.6-0.6-1.1-0.6-2.5v-4.1q0-1.4 0.6-2.5 0.7-1.1 1.8-1.7 1.2-0.6 2.7-0.6 1.5 0 2.7 0.6 1.1 0.6 1.7 1.6 0.7 1 0.7 2.3 0 0.1-0.1 0.2-0.1 0-0.2 0l-2.6 0.2q-0.3 0-0.3-0.2 0-0.9-0.5-1.4-0.5-0.6-1.4-0.6-0.9 0-1.4 0.6-0.5 0.5-0.5 1.4v4.3q0 0.9 0.5 1.4 0.5 0.5 1.4 0.5 0.9 0 1.4-0.5 0.5-0.5 0.5-1.4 0-0.2 0.3-0.2l2.6 0.1q0.1 0 0.2 0.1 0.1 0 0.1 0.1 0 1.3-0.7 2.4-0.6 1-1.7 1.6-1.2 0.5-2.7 0.5-1.5 0-2.7-0.6z"/><path fill-rule="evenodd" class="a" d="m14.3 13.3q-1.1-0.7-1.8-1.8-0.6-1.1-0.6-2.6v-3.8q0-1.4 0.6-2.5 0.7-1.1 1.8-1.8 1.2-0.6 2.7-0.6 1.6 0 2.7 0.6 1.2 0.7 1.9 1.8 0.6 1.1 0.6 2.5v3.8q0 1.5-0.6 2.6-0.7 1.1-1.9 1.8-1.1 0.6-2.7 0.6-1.5 0-2.7-0.6zm4.2-2.7q0.6-0.6 0.6-1.6v-3.9q0-1-0.6-1.6-0.6-0.6-1.5-0.6-0.9 0-1.4 0.6-0.6 0.6-0.6 1.6v3.9q0 1 0.6 1.6 0.5 0.6 1.4 0.6 0.9 0 1.5-0.6z"/><path class="a" d="m33.1 0.4h2.7q0.1 0 0.1 0.1 0.1 0 0.1 0.1v12.8q0 0.1-0.1 0.2 0 0.1-0.1 0.1h-2.7q-0.1 0-0.2-0.1 0-0.1 0-0.2v-7.6q0-0.1-0.1-0.1 0 0 0 0.1l-1.7 2.6q-0.1 0.2-0.2 0.2h-1.4q-0.2 0-0.3-0.2l-1.6-2.6q0-0.1-0.1-0.1 0 0 0 0.1v7.6q0 0.1-0.1 0.2-0.1 0.1-0.1 0.1h-2.7q-0.1 0-0.2-0.1-0.1-0.1-0.1-0.2v-12.8q0-0.1 0.1-0.1 0.1-0.1 0.2-0.1h2.6q0.2 0 0.3 0.1l2.6 4.2q0.1 0.1 0.1 0l2.6-4.2q0.1-0.1 0.3-0.1z"/><path class="a" d="m47.7 3q0 0.1-0.1 0.1h-6q-0.1 0-0.1 0.1v2.3q0 0.1 0.1 0.1h3.8q0.1 0 0.2 0.1 0.1 0 0.1 0.1v2.2q0 0.1-0.1 0.2-0.1 0.1-0.2 0.1h-3.8q-0.1 0-0.1 0.1v2.5q0 0.1 0.1 0.1h6q0.1 0 0.1 0 0.1 0.1 0.1 0.2v2.2q0 0.1-0.1 0.2 0 0.1-0.1 0.1h-9q-0.1 0-0.2-0.1 0-0.1 0-0.2v-12.8q0-0.1 0-0.1 0.1-0.1 0.2-0.1h9q0.1 0 0.1 0.1 0.1 0 0.1 0.1v2.3q0 0-0.1 0.1z"/><path class="a" d="m59 0.5q0.1 0 0.1 0.1v2.3q0 0.1-0.1 0.1-0.1 0.1-0.2 0.1h-3.3q-0.1 0-0.1 0.1v10.2q0 0.1 0 0.2-0.1 0.1-0.2 0.1h-2.7q-0.1 0-0.1-0.1-0.1-0.1-0.1-0.2v-10.2q0-0.1-0.1-0.1h-3.2q-0.1 0-0.2-0.1 0 0 0-0.1v-2.3q0-0.1 0-0.1 0.1-0.1 0.2-0.1h9.8q0.1 0 0.2 0.1z"/></g></svg>