<svg version="1.2" xmlns="http://www.w3.org/2000/svg" viewBox="0 0 26 26" width="26" height="26"><defs><clipPath clipPathUnits="userSpaceOnUse" id="cp1"><path d="m-896-620h1920v6874h-1920z"/></clipPath></defs><style>.a{fill:#f8cf00}.b{fill:#09192c}.c{fill:#532a03}.d{fill:#e74700}</style><g clip-path="url(#cp1)"><circle class="a" cx="12.7" cy="12.7" r="12.6"/><rect class="b" x="7.8" y="4.8" width="2.4" height="5.6" rx="1.2"></rect><rect class="b" x="15.1" y="4.8" width="2.4" height="5.6" rx="1.2"></rect><path class="c" d="m22.1 14.8c-0.6 4.6-4.6 8.2-9.4 8.2-4.9 0-8.9-3.6-9.5-8.2q0-0.1 0-0.1 0 0 0-0.1 0 0 0 0c0-0.5 0.4-0.9 0.9-0.9h17.1c0.5 0 0.9 0.4 0.9 0.9q0 0 0 0 0 0.1 0 0.1 0 0 0 0.1z"/><path class="d" d="m12.7 18.8c2 0 3.7 1.3 4.4 3.1-1.3 0.7-2.8 1.1-4.4 1.1-1.6 0-3.1-0.4-4.5-1.1 0.7-1.8 2.4-3.1 4.5-3.1z"/></g></svg>