<svg version="1.2" xmlns="http://www.w3.org/2000/svg" viewBox="0 0 46 46" width="46" height="46"><defs><clipPath clipPathUnits="userSpaceOnUse" id="cp1"><path d="m-386-29h1920v6874h-1920z"/></clipPath></defs><style>.a{fill:#5ad9b9}</style><g clip-path="url(#cp1)"><path fill-rule="evenodd" class="a" d="m45.4 33.3c0 7-5.6 12.7-12.7 12.7-4.5 0-8.5-2.4-10.7-5.9l-16.8-25.1 7.5 4.2v-0.1l-12.7-18.6 22.8 16-3.8-7.8 20.7 14c3.5 2.3 5.7 6.2 5.7 10.6zm-4.2 0c0-3-1.6-5.7-4-7.2l-5.9-4-1.4-0.3 3.7 7.6-16.5-11.9 9.4 14.2-7.5-3.7 5.8 8.2c1.6 3.2 4.3 5.6 7.9 5.6 4.7 0 8.5-3.8 8.5-8.5z"/></g></svg>